<svg data-v-423bf9ae="" xmlns="http://www.w3.org/2000/svg" viewBox="0 0 333 91" class="iconLeft"><!----><defs data-v-423bf9ae=""><linearGradient data-v-423bf9ae="" gradientTransform="rotate(25)" id="652fae06-45b9-4844-bd02-a5c83ac0e42b" x1="0%" y1="0%" x2="100%" y2="0%"><stop data-v-423bf9ae="" offset="0%" style="stop-color: rgb(75, 39, 155); stop-opacity: 1;"></stop><stop data-v-423bf9ae="" offset="100%" style="stop-color: rgb(223, 153, 216); stop-opacity: 1;"></stop></linearGradient></defs><!----><g data-v-423bf9ae="" id="d7c667aa-ccf5-4312-afc9-ca3917360a8e" fill="#ffffff" transform="matrix(4.431314635822839,0,0,4.431314635822839,86.28023340957996,12.961595984361992)"><path d="M0.59 0.70L0.49 1.29L1.71 1.75L1.71 9.45L0.49 9.91L0.59 10.50L7.62 10.50L7.62 7.91L7.03 7.81L6.22 9.91L3.19 9.91L3.19 1.75L4.41 1.29L4.31 0.70ZM14.32 5.78C14.32 4.34 13.23 3.81 11.61 3.81C9.65 3.81 8.25 5.07 8.25 7.22C8.25 9.30 9.41 10.65 11.89 10.65C12.80 10.65 13.69 10.37 14.29 9.83L13.97 9.37C13.40 9.73 12.71 10.00 11.97 10.00C10.70 10.00 9.98 9.14 9.79 7.87C12.15 7.87 14.32 7.49 14.32 5.78ZM9.73 7.11C9.73 5.52 10.35 4.33 11.55 4.33C12.52 4.33 13.01 4.73 13.01 5.61C13.01 6.65 11.56 7.36 9.73 7.38ZM17.12 4.47C17.02 4.27 16.73 3.81 16.10 3.81C15.64 3.81 15.20 3.91 14.88 3.96L14.88 4.47L15.65 4.47L17.40 7.14C17.21 8.11 16.59 9.52 16.10 9.87L15.67 9.10C15.23 9.10 14.88 9.44 14.88 9.87C14.88 10.30 15.25 10.65 15.68 10.65C16.58 10.65 17.42 9.20 17.84 7.78L19.29 10.00C19.56 10.40 19.91 10.65 20.43 10.65C20.80 10.65 21.15 10.60 21.35 10.50L21.35 10.00C20.92 10.00 20.73 9.79 20.50 9.44L18.76 6.89C19.05 5.96 19.64 4.94 20.13 4.59L20.57 5.36C21 5.36 21.35 5.03 21.35 4.59C21.35 4.16 20.99 3.81 20.55 3.81C19.67 3.81 18.77 5.14 18.33 6.26ZM23.79 0.74C23.37 0.74 23.03 1.08 23.03 1.50C23.03 1.92 23.37 2.25 23.79 2.25C24.19 2.25 24.54 1.92 24.54 1.50C24.54 1.08 24.19 0.74 23.79 0.74ZM24.49 4.47C24.49 4.47 24.50 3.81 23.73 3.81C23.27 3.81 22.65 3.91 22.33 3.96L22.33 4.47L23.17 4.47L23.17 10.50L24.49 10.50ZM29.15 10.05C28.73 10.05 28.45 10.00 28.08 9.88L27.65 8.19C26.96 8.19 26.40 8.41 26.40 9.16C26.40 10.53 28.49 10.74 29.25 10.74C31.71 10.74 32.73 9.62 32.73 8.08C32.73 6.45 31.49 5.68 30.02 4.94C29.22 4.54 27.66 3.89 27.66 2.88C27.66 1.96 28.28 1.15 29.54 1.15C29.96 1.15 30.24 1.20 30.60 1.32L31.04 3.01C31.72 3.01 32.28 2.59 32.28 1.90C32.28 0.53 30.31 0.46 29.55 0.46C27.80 0.46 26.36 1.27 26.36 2.98C26.36 4.89 27.58 5.46 28.64 6.01C29.65 6.52 31.44 7.17 31.44 8.39C31.44 9.46 30.52 10.05 29.15 10.05ZM35.99 4.47C35.99 4.47 36.01 3.81 35.24 3.81C34.78 3.81 34.16 3.91 33.84 3.96L33.84 4.47L34.68 4.47L34.68 10.50L35.99 10.50L35.99 7.39C35.99 5.32 37.03 4.47 37.74 4.47C38.44 4.47 38.88 5.05 38.88 5.95L38.88 9.38C38.88 10.36 39.56 10.65 40.08 10.65C40.46 10.65 40.82 10.60 41.02 10.50L41.02 10.00C40.59 10.00 40.19 9.79 40.19 9.35L40.19 6.30C40.19 4.76 39.55 3.81 38.02 3.81C37.30 3.81 36.34 4.45 35.99 5.43ZM44.73 10.65C45.42 10.65 46.13 10.28 46.45 9.60C46.65 10.39 47.19 10.65 47.68 10.65C47.95 10.65 48.23 10.61 48.45 10.50L48.45 10.00C48.02 10.00 47.68 9.79 47.68 9.35L47.68 3.96L47.19 3.81L46.37 4.03C46.02 3.85 45.57 3.81 45.15 3.81C43.39 3.81 41.94 4.90 41.94 7.57C41.94 9.83 43.36 10.65 44.73 10.65ZM46.37 7.77C46.37 9.37 45.57 10.00 44.87 10.00C44.10 10.00 43.30 9.45 43.30 7.50C43.30 5.08 44.32 4.33 45.22 4.33C45.64 4.33 45.92 4.40 46.37 4.65ZM50.83 4.66C50.83 4.66 50.85 3.81 50.08 3.81C49.62 3.81 49 3.91 48.68 3.96L48.68 4.47L49.52 4.47L49.52 12.73C49.52 13.71 50.20 14 50.72 14C51.10 14 51.46 13.94 51.66 13.85L51.66 13.34C51.23 13.34 50.83 13.13 50.83 12.70L50.83 7.39C50.83 5.42 52.01 4.47 52.68 4.47C53.51 4.47 54.11 4.86 54.11 6.65C54.11 8.55 52.98 9.98 51.87 9.98L51.28 9.98L51.28 10.50L51.90 10.50C54.04 10.50 55.59 8.83 55.59 6.75C55.59 4.47 54.39 3.81 52.99 3.81C52.26 3.81 51.20 4.42 50.83 5.43Z"></path></g><!----><g data-v-423bf9ae="" id="a87eb058-8683-44db-bd69-da9c762c4cae" transform="matrix(1.1256162798941491,0,0,1.1256162798941491,-21.734686340190187,-11.30688653430746)" stroke="none" fill="#ffffff"><path d="M63.738 11.716c-1.346-.751-3.007-.715-4.748-.038a4.45 4.45 0 011.969.545c3.614 2.016 3.597 8.938-.041 15.459-.668 1.198-1.337 2.395-2.004 3.593-1.269 2.274-3.193 4.725-4.067 7.161-.211.587-.81 2.75-.689 3.273.458 1.991 4.407-5.333 4.681-5.824 1.62-2.903 3.24-5.807 4.858-8.71 3.637-6.522 3.655-13.444.041-15.459zM76.843 90.36c-.569 0-1.07-.114-1.513-.341-1.473-.758-1.814-2.49-2.144-4.168-.296-1.511-.576-2.938-1.579-3.457-1.5-.775-4.547-.281-6.369.018l-.198.032c-1.651.269-3.417.817-5.287 1.399-2.51.779-5.103 1.586-7.479 1.683l-.966.039.076-.962c.043-.545.293-1.114.559-1.72.545-1.239.72-1.847.321-2.161-.835-.66-3.362-.4-7.505.772l-.409.116c-.361.1-.882.262-1.517.46-5.588 1.74-11.76 3.45-14.293 1.695-.686-.477-1.075-1.183-1.125-2.045a.857.857 0 01.807-.904c.477-.003.877.333.905.807.019.338.135.558.39.733 2.059 1.427 9.867-1.007 12.807-1.923.658-.205 1.197-.373 1.57-.477l.398-.111c3.681-1.042 7.323-1.816 9.035-.47 1.507 1.19.712 3 .187 4.197-.019.042-.035.082-.054.122 1.835-.261 3.836-.884 5.784-1.49 1.845-.572 3.752-1.166 5.522-1.453l.197-.032c2.164-.353 5.434-.884 7.432.152 1.737.898 2.13 2.892 2.475 4.65.262 1.333.51 2.594 1.245 2.973.645.331 1.842.108 3.466-.633a.857.857 0 01.712 1.559c-1.38.63-2.511.94-3.45.94zM33.647 60.737c-2.915-.959-5.222-2.576-6.443-4.288-6.1 13.144-8.838 23.231-6.269 24.664 2.661 1.484 10.229-6.766 18.546-19.611-1.721.156-3.755-.082-5.834-.765z"></path><path d="M60.113 10.875c-3.425-1.91-9.332 2.159-13.195 9.086L31.771 47.119l.053.029a203.09 203.09 0 00-4.244 8.508c1.598 1.378 3.888 2.653 6.576 3.537 2.167.713 4.274 1.065 6.114 1.093a209.739 209.739 0 003.844-6.282l.052.029 15.149-27.158c3.864-6.927 4.22-14.09.798-16z"></path></g><!----></svg>